<svg display="none" xmlns="http://www.w3.org/2000/svg">
    <!-- Arrow right icon -->
    <symbol id="arrowRight" viewBox="0 0 24 24" fill="none"
        stroke="currentColor" stroke-width="2" stroke-linecap="round" stroke-linejoin="round">
        <path d="M5 12h14" />
        <path d="m12 5 7 7-7 7" />
    </symbol>

    <!-- Login icon -->
    <symbol id="login" viewBox="0 0 24 24" fill="none"
        stroke="currentColor" stroke-width="2" stroke-linecap="round" stroke-linejoin="round">
        <path d="m10 17 5-5-5-5" />
        <path d="M15 12H3" />
        <path d="M15 3h4a2 2 0 0 1 2 2v14a2 2 0 0 1-2 2h-4" />
    </symbol>

    <!-- Register icon -->
    <symbol id="register" viewBox="0 0 24 24" fill="none"
        stroke="currentColor" stroke-width="2" stroke-linecap="round" stroke-linejoin="round">
        <path d="M2 21a8 8 0 0 1 13.292-6" />
        <circle cx="10" cy="8" r="5" />
        <path d="M19 16v6" />
        <path d="M22 19h-6" />
    </symbol>

    <!-- User icon -->
    <symbol id="user" viewBox="0 0 24 24" fill="none"
        stroke="currentColor" stroke-width="2" stroke-linecap="round" stroke-linejoin="round">
        <path d="M19 21v-2a4 4 0 0 0-4-4H9a4 4 0 0 0-4 4v2" />
        <circle cx="12" cy="7" r="4" />
    </symbol>

    <!-- Mail icon -->
    <symbol id="mail" viewBox="0 0 24 24" fill="none"
        stroke="currentColor" stroke-width="2" stroke-linecap="round" stroke-linejoin="round"
        class="lucide lucide-mail-icon lucide-mail">
        <path d="m22 7-8.991 5.727a2 2 0 0 1-2.009 0L2 7" />
        <rect x="2" y="4" width="20" height="16" rx="2" />
    </symbol>

    <!-- Create icon -->
    <symbol id="create" viewBox="0 0 24 24" fill="none"
        stroke="currentColor" stroke-width="2" stroke-linecap="round" stroke-linejoin="round"
        class="lucide lucide-package-plus-icon lucide-package-plus">
        <path d="M16 16h6" />
        <path d="M19 13v6" />
        <path
            d="M21 10V8a2 2 0 0 0-1-1.73l-7-4a2 2 0 0 0-2 0l-7 4A2 2 0 0 0 3 8v8a2 2 0 0 0 1 1.73l7 4a2 2 0 0 0 2 0l2-1.14" />
        <path d="m7.5 4.27 9 5.15" />
        <polyline points="3.29 7 12 12 20.71 7" />
        <line x1="12" x2="12" y1="22" y2="12" />
    </symbol>
</svg>